<svg xmlns="http://www.w3.org/2000/svg" version="1.1" xmlns:xlink="http://www.w3.org/1999/xlink" width="1000" height="1000"><svg id="SvgjsSvg1005" xmlns="http://www.w3.org/2000/svg" version="1.1" xmlns:xlink="http://www.w3.org/1999/xlink" viewBox="0 0 1000 1000">
  <!-- Generator: Adobe Illustrator 29.5.1, SVG Export Plug-In . SVG Version: 2.1.0 Build 141)  -->
  <defs>
    <style>
      .st0 {
        fill: none;
      }

      .st1 {
        fill: #ff7425;
      }

      .st2 {
        fill: #fcf1de;
      }

      .st3 {
        clip-path: url(#clippath);
      }
    </style>
    <clipPath id="SvgjsClipPath1004">
      <path class="st0" d="M500,0h0c276.14,0,500,223.86,500,500s-223.86,500-500,500S0,776.14,0,500,223.86,0,500,0Z"></path>
    </clipPath>
  </defs>
  <g id="SvgjsG1003">
    <g class="st3">
      <g>
        <rect width="1000" height="1000"></rect>
        <g>
          <path class="st1" d="M302.93,339.51c.98-1.46,2.46-3.74,4.21-6.56,3.87-6.22,5.16-8.88,7.63-12.95,1.56-2.57,4.2-6.22,9.45-13.51,6.22-8.61,9.32-12.92,11.2-14.97,4.21-4.64,7.47-8.22,12.6-12.37,2.7-2.18,3.4-2.49,4.26-3.91,1.74-2.9,1.68-6.4-1.76-18.03-.98-3.29-2.07-6.72-5.34-16.06-2.85-8.15-4.3-12.25-5.26-14.06-4.67-8.79-9.94-12.12-8.93-13.62.93-1.38,6.07.55,13.54,3.37,7,2.64,11.98,4.52,18.29,8.48,5.83,3.65,9.84,7.21,11.9,9.03,2.46,2.2,4.02,3.6,5.94,5.84,5.03,5.87,4.7,8.41,7.13,9.13,3.01.89,5.16-2.54,14.03-9.1,5.48-4.07,9.23-6.85,14.73-9,1.68-.65,2.62-.91,13.85-3.55,12.42-2.91,13.1-3.04,13.49-3.91,2.72-6.09-21.33-22.94-34.79-31.24-7.65-4.72-14.69-8.23-28.75-15.26-19.62-9.81-27-12.27-29.68-13.15-5.66-1.84-5.97-1.56-20.02-5.78-5.66-1.71-11.37-3.21-17.04-4.87-11.68-3.4-13.86-4.23-16.09-2.83-2.75,1.72-1.92,4.54-4.75,16.17-1.64,6.72-1.92,5.79-4.44,15.39-1.25,4.75-2.13,8.69-3.82,16.35-2.28,10.25-3.42,15.39-3.95,18.68-.62,3.81-1.77,11.7-2.12,21.79-.2,5.66-.13,11.62.47,20.28,1.16,16.7,1.95,28.18,5.57,42.21,2.41,9.31,6.7,22.29,14.91,36.92"></path>
          <path class="st1" d="M638.08,714.09c-10.37,7.44-24.91,15.12-53.62,30.19-17.8,9.34-23.79,12.22-39.77,20.94-18.16,9.91-27.42,15.46-37.64,23.43-1.01.78-15.52,12.2-23.07,22.85-.47.67-2.36,3.35-5.68,8.05-5.99,8.45-6.3,8.72-7.44,10.51-4.47,7.11-8.51,13.52-6.41,17.17,1.27,2.21,4.21,2.42,19.28,2.6,11.78.15,17.66.21,22.24.11,8.85-.2,15.57-.34,24.85-1.06,7.49-.59,14.42-1.12,23.68-2.72,10.06-1.74,17.53-3.79,23.43-5.45,12.19-3.4,21.25-6.82,24.73-8.17,10.25-3.97,17.67-7.58,22.72-10.06,3.22-1.58,16.06-7.94,32.53-18.31,7.71-4.85,16.11-10.14,26.64-18.39,11.05-8.66,18.63-16.03,24.26-21.54,7.16-7.01,16.68-16.39,27.22-30.19,4.95-6.48,8.35-11.6,11.96-17.04,4.25-6.41,10.15-15.36,16.68-27.7,5.34-10.06,8.67-17.83,9.44-19.62,2.96-6.93,4.69-11.86,7.71-20.5,4.08-11.65,6.38-18.21,8.77-27.73,1.04-4.12,2.77-11.07,4.13-20.31.94-6.4,1.43-11.98,1.89-17.17.29-3.35.59-6.75.83-11.36.29-5.66.16-6.8.47-14.43.21-5.37.49-10.04.54-10.9.47-7.91.78-10.41.52-15.02-.24-4.31-.39-6.53-1.42-8.64-.96-1.97-2.39-3.68-8.4-8.05-5.57-4.04-9.94-6.62-9.94-6.62-4.05-2.39-9.31-5.48-16.74-8.87-9.32-4.25-16.76-6.51-21.48-7.94-8.77-2.65-14.63-3.94-20.72-4.85-11.78-1.76-15.05-1.55-17.61-1.66-2.99-.13-1.46,1.29-1.35,2.02.39,2.49-.96,4.1-.18,8.64.81,4.78,2.49,7.34,5.06,13.38,3.12,7.34,5.01,13,5.68,15.04,1.17,3.6,2.49,7.65,3.55,13.13.44,2.23.59,3.47,1.55,11.72,1.2,10.5,1.82,15.78,1.89,17.4.33,7.03-.07,12.42-.36,16.09-.7,9.03-2.07,15.69-2.36,17.17-.29,1.42-1.46,6.93-4.49,16.09-1.12,3.42-4.52,13.6-9.36,23.79-1.86,3.92-11.15,23.07-30.19,44.02-2.95,3.24-14.86,16.14-34.09,29.94l.05.02Z"></path>
          <path class="st2" d="M559.39,514.56c-4.44,2.26-8.93,4.64-13.49,7.11-6.46,3.51-12.69,7.05-18.66,10.58-4.77,2.83-9.68,5.92-14.71,9.29-7.68,5.16-14.69,10.35-21.07,15.43-3.66,2.42-9.16,6.28-15.51,11.55-4.21,3.51-6.12,5.44-10.77,9.47-3.81,3.3-9.39,7.97-16.57,13.36-7.75,5-15.48,9.99-23.22,14.99-10.11,5.21-20.23,10.41-30.33,15.62-7.24,2.8-14.48,5.58-21.72,8.38-7.73,1.71-15.46,3.4-23.19,5.11-6.7,1.14-13.41,2.28-20.11,3.42-6.54.23-13.1.46-19.64.67.33.63.86,1.53,1.68,2.47,1.24,1.45,2.47,2.26,3.42,2.86,2.28,1.46,4.74,3.01,7.4,4.62,3.58,1.76,6.59,2.91,8.75,3.66,1.59.55,3.03.99,5.79,1.84,2.75.83,5.03,1.5,6.62,1.95,2.26.6,4.28,1.04,5.97,1.37.67.13,3.09.59,6.33,1.01,2,.26,3.76.42,5.14.54,2.03.07,4.96.13,8.53.18,5.68.07,9.67.11,14.43-.11,3.42-.16,8.15-.5,13.85-1.3,6.35-1.61,12.71-3.21,19.06-4.82l31.96-13.26,21.77-12.07,17.75-13.49,19.41-17.51,6.15-8.28.24,12.07c.03,2.6-.1,5.73-.65,9.19-.57,3.6-1.43,6.7-2.31,9.23-.36,2.16-1.12,5.21-2.85,8.53-2.12,4.05-4.77,6.77-6.57,8.35-1.76,3.01-4.07,6.43-7.09,9.94-4.39,5.11-8.9,8.79-12.61,11.36-4,3.16-8.02,6.31-12.03,9.49-6.41,3.87-11.72,6.7-15.49,8.62-2.91,1.48-5.81,2.88-10.3,5.32-3.69,2.02-6.69,3.76-8.71,4.96-2.75,2.21-5.57,4.44-8.48,6.69-3.3,2.54-6.57,5-9.81,7.34-3.37,3.01-7,6.54-10.66,10.66-4.02,4.52-7.36,8.92-10.12,12.94-3.47,4.2-7.23,9.34-10.82,15.48-2.9,4.93-5.16,9.63-6.93,13.88-2.85,6.54-5.68,13.1-8.53,19.64l-4.74,15.62-2.85,22.72.94,4.49,9.47,5.21c4.1,2.13,8.48,4.25,13.13,6.3,6.92,3.06,13.54,5.58,19.77,7.66,2.55,1.12,5.57,2.23,9,3.16,4.43,1.2,8.46,1.77,11.83,2.05,3.22-8.46,6.44-16.92,9.67-25.39l11.86-18.91c3.19-5.14,7.55-11.23,13.49-17.4,4.57-4.77,9.1-8.56,13.13-11.54,5.24-4.93,11.31-10.12,18.29-15.26,4.85-3.58,9.57-6.74,14.08-9.5,12.53-6.87,25.06-13.72,37.59-20.58,8.01-3.63,16.14-7.44,24.38-11.39,8.67-4.18,17.14-8.38,25.37-12.6,8.19-4.62,17.27-10.43,26.7-17.7,8.04-6.18,14.95-12.38,20.83-18.19,4.26-4.38,8.92-9.76,13.49-16.26,3.84-5.45,6.9-10.66,9.36-15.38,2.67-4.05,5.44-8.74,8.05-14.08,3.43-7,5.84-13.56,7.57-19.28,1.24-3.82,1.95-7.03,2.38-9.26.24-1.3.47-2.64,1.3-8.97.65-5,.98-7.5,1.12-8.87.42-3.94.81-9.65.59-16.99-.1-1.9-.21-4.82-.24-8.4,0-3.21.07-3.63.07-6.28,0-6.57-.52-7.16-.49-12.6.03-4.33.07-6.54.83-9.36.98-3.63,2.6-6.35,3.82-8.07,1.07-2.07,2.51-4.47,4.43-6.98,2.07-2.7,4.17-4.83,6-6.46.1-2.41.21-3.92.29-4.87.03-.28.1-1.07.13-2.13.02-.73,0-1.35,0-1.74-1.82-.11-3.63-.21-5.45-.33-3.35-.24-6.85-.44-10.48-.54-4.98-.15-9.73-.11-14.24.05-3.56-.03-7.34.07-11.31.31-5.7.36-10.98.99-15.8,1.77-7.52,1.71-15.04,3.43-22.54,5.14-7.11,2.1-14.24,4.2-21.35,6.3-6.26,2.34-12.58,4.75-18.94,7.26-3.69,1.45-7.37,2.91-11,4.38-3.63,1.55-7.26,3.08-10.89,4.62l.05-.07Z"></path>
          <path class="st1" d="M701.4,487.33c.08-.63.24-2.1,0-1.66"></path>
          <path class="st1" d="M781.41,446.75c-1.29-3.69-2.64-7.21-4.02-10.53-2.7-6.59-5.35-12.45-7.81-17.51-2.88-5.96-5.13-10.04-9.58-18.23-5.7-10.45-8.09-14.19-9.58-16.45-2.03-3.08-4.23-6.18-5.26-7.63-2.86-4.04-5.35-7.37-7.19-9.8-2.07-2.46-4.15-4.91-6.22-7.37-2.85-2-4.18-1.43-4.52-1.24-.72.37-.85,1.06-2.03,3.91-.42.99-.99,2.36-1.55,3.48-.42.86-.73,1.38-3.34,5.3-2.46,3.69-2.72,4.05-3.01,4.44-1.24,1.58-1.43,1.59-3.38,3.89-2.28,2.67-3.42,3.99-4.1,5.21-.96,1.72-2.08,3.35-2.93,5.14-.28.59-.6,1.3-1.3,1.55-.85.28-1.68-.34-3.08-1.19-.57-.34-.94-.52-1.27-.72,0,0-1.61-.91-3.38-1.74-1.72-.8-3.11-1.19-4.82-1.69-1.11-.33-1.22-.31-5.45-1.32-3.34-.8-3.25-.8-4.02-.96-1.74-.36-3.06-.52-5.63-.85-2.65-.34-2.7-.28-5.73-.67-3.51-.46-3.08-.47-3.63-.49-.96,0-1.77-.16-3.38-.47-.33-.07-.41-.08-.46-.16-.55-.96,6.9-6.12,9.42-8.9.68-.75,5.57-5.03,9.52-9.29,5.5-5.91,9.71-12.79,13.6-18.81,3.11-4.82,5.13-10.25,7.7-15.38,1.77-3.04,4.1-7.5,6.15-13.13,1.4-3.84,2.77-8.53,4.85-21.54.98-6.1,2.1-13.99,3.08-23.32.88-6.46,1.5-13.77,1.56-21.77.08-10.64-.86-20.13-2.15-28.17-1.35-8.15-2.99-16.65-5.01-25.47-1.22-5.37-2.52-10.56-3.87-15.59-1.16-4.56-2.55-9.39-4.25-14.43-1.63-4.87-3.35-9.41-5.09-13.6-4.28.02-8.82.23-13.6.72-13.86,1.38-25.78,4.64-35.39,8.17-9.78,4.1-19.56,8.2-29.36,12.3-8.05,4.43-16.09,8.84-24.15,13.26-6.3,4.18-12.87,8.88-19.62,14.12-7.88,6.12-14.97,12.2-21.32,18.06-5.97,7.4-10.72,13.83-14.21,18.7-4.7,6.61-7.75,10.89-11.24,17.09-3.66,6.46-6.18,12.11-7.81,16.13-1.48,7.05-3.76,9.13-5.61,9.67-1.03.31-1.38-.03-5.06.08-2.64.08-4.61.33-6.3.54-3.58.44-3.66.68-7.86,1.29-4.34.62-3.89.31-6.95.81-4.54.76-5.86,1.5-6.67.75-.6-.55-1.11-2.07,1.06-6.92,1.01-4.21,2.9-10.59,6.57-17.75,4.33-8.46,8.01-11.86,6.75-13.85-1.42-2.21-7.86-.96-24.85,4.8-13.07,4.43-23.66,8.56-30.92,11.5-10.43,5.52-21.48,11.86-32.94,19.2-10.51,6.74-20.13,13.51-28.88,20.11l-18.47,17.75c-7.01,9.37-14.04,18.75-21.06,28.1-3.32,5.68-6.69,11.93-9.94,18.76-2.85,5.97-5.32,11.72-7.45,17.17-2.13,6.62-4.26,13.26-6.4,19.89-1.01,4.62-2,9.26-3.01,13.88-2.07,7.68-4.15,15.36-6.22,23.04-.78,2.7-1.68,5.52-2.72,8.4-2.77,7.66-5.99,14.37-9.23,20.11-3.5,5.87-7,11.75-10.5,17.62-2.25,3.11-4.82,6.38-7.73,9.71-4.08,4.69-8.15,8.67-11.96,12.07-6.28,4-12.56,8.02-18.84,12.03-7.75,3.03-15.48,6.05-23.22,9.08l-13.39,3.24c-3.61.18-7.21.34-10.82.52-.1,2.38-.05,5.04.24,7.92.62,6.09,2.15,11.16,3.66,15.04,4.43-1.14,8.36-1.84,11.63-2.28,4.33-.59,7.62-.75,8.59-.8,4.46-.2,8.36-.03,11.6.24,2.91.47,5.84.94,8.75,1.42.89.28,2.07.73,3.32,1.55,1.43.93,2.44,1.95,3.08,2.72.42.81.86,1.86,1.19,3.08.54,2.03.57,3.82.47,5.09.15,1.03.24,2.31.11,3.79-.16,2.08-.7,3.79-1.19,4.96-.34,1.03-.89,2.31-1.77,3.66-1.04,1.61-2.18,2.77-3.08,3.55-1.24.99-2.68,2.05-4.38,3.08-1.51.91-2.95,1.66-4.26,2.25-2.29.99-4.57,1.97-6.87,2.96.98,1.06,2.07,2.13,3.32,3.19,4.47,3.84,9.11,6.04,12.77,7.34,2.67.85,5.81,1.68,9.36,2.25,3.17.52,6.07.75,8.64.83,3.95.47,8.1.88,12.43,1.19,5.86.41,11.42.59,16.68.59,7.97-.16,15.93-.31,23.9-.47,9.93-1.94,19.84-3.87,29.76-5.79,9.76-3.08,19.53-6.15,29.29-9.23,11.81-4.78,21.11-9.76,27.7-13.67,8.49-5.03,14.92-9.68,24.85-16.86,3.66-2.65,9.37-6.8,16.68-12.61,7.06-5.61,7.55-6.36,15.49-12.73,7.47-5.97,13.38-10.38,17.17-13.2,5.71-4.25,9.75-7.24,15.33-11.07,1.79-1.22,9.68-6.57,20.7-13.08,8.46-5,16.68-9.41,24.49-13.31,9-4.15,17.98-8.28,26.98-12.43,7.42-3.3,15.78-6.59,25.03-9.58,8.58-2.78,16.68-4.9,24.13-6.53,6.92-1.99,14.65-3.81,23.11-5.24,6.13-1.04,11.94-1.74,17.38-2.2,5.22-.67,10.85-1.2,16.86-1.5,6.8-.33,13.16-.33,19.02-.1,10.09,1.19,20.18,2.39,30.27,3.58,6.67,1.42,13.69,3.12,20.98,5.16,5.96,1.68,11.63,3.43,17.02,5.26,2.86,1.09,5.34,2.13,7.34,3.04,3.14,1.43,4.88,2.21,7.23,3.58,4.49,2.62,5.21,3.08,5.21,3.08,2.46,1.58,3.47,2.41,4.47,2.03,1.19-.42,1.61-2.2,1.77-3.24-1.46-6.57-3.42-13.69-6.02-21.17h.03ZM537.61,444.96c-.49,1.03-2.41,1.11-6.22,1.24-2.83.1-3.69-.15-7.81-.2-2.36-.02-3.55-.03-4.8.08-2.72.24-4.64.81-8.12,1.84-1.77.52-3.74,1.11-6.3,2.13-2.62,1.06-4.59,2.07-6.17,2.88-1.38.72-2.31,1.24-3.89,2.13-8.1,4.56-7.16,4-8.53,4.8-6.62,3.84-6,3.86-9.54,5.74-1.5.8-5.19,2.72-10.17,4.54-5.7,2.08-10.24,3.03-13.18,3.61-6.07,1.22-6.23.7-13.38,2.03-5.71,1.06-8.77,1.63-12.86,3.22-5.04,1.97-8.97,4.44-10.11,5.17-5.24,3.37-7.83,5.3-7.83,5.3-3.06,2.28-5.29,4.21-7.01,3.47-.68-.29-1.09-.93-1.32-1.43,1.38-9.44,3.76-17.02,5.84-22.44,2.64-6.87,5.35-11.75,6.28-13.38,2.96-5.19,6-9.41,8.62-12.63,4.21-4.8,8.28-8.4,11.55-10.98,2.68-2.13,6.51-5.09,12.14-7.97,2.23-1.14,5.7-2.88,10.53-4.23,4.38-1.22,7.65-1.51,13.73-2,3.42-.28,8.01-.54,13.47-.49,2.88,0,7.09.23,12.07,1.37,2.29.52,4.02,1.07,6.35,1.82,3.04.98,7.19,2.42,12.09,4.51,3.81,1.74,6.87,3.43,9.02,4.72,4.67,2.78,8.32,5.5,11.6,8.88,2.28,2.36,4.61,4.77,3.91,6.22v.03ZM655.44,227.95c-2.75,7.58-4.13,11.36-5.52,16.31-1.37,4.9-3.35,11.94-4.38,20.47-.62,5.17-.33,6.07-.36,20.83-.05,18.86-.57,25.84-2.49,33.26-1.17,4.52-2.55,8.02-4.49,11.36-.55.94-.91,1.46-6.87,9.11-4.98,6.38-5.63,7.16-6.85,7.21-2.47.08-4.52-3.09-8.53-9.45-2.13-3.38-3.42-5.42-4.96-8.87-4.77-10.59-5.87-20.7-6.4-25.79-1.25-12.27.05-21.81.62-25.39.83-5.27,2.15-13.25,6.61-22.78,1.37-2.91,5.32-10.94,12.95-19.38,6.26-6.95,12.19-11.07,16.37-13.91,1.53-1.04,6.02-4.07,12.33-7.06,1.48-.7,11.37-5.35,12.24-3.95.46.75-2.12,2.46-4.9,6.31-1.72,2.39-2.75,4.52-5.37,11.75l-.02-.02Z"></path>
        </g>
      </g>
    </g>
  </g>
</svg><style>@media (prefers-color-scheme: light) { :root { filter: none; } }
@media (prefers-color-scheme: dark) { :root { filter: none; } }
</style></svg>