<?xml version="1.0" encoding="UTF-8"?>
<svg id="Layer_1" xmlns="http://www.w3.org/2000/svg" version="1.1" viewBox="0 0 1440 454">
  <!-- Generator: Adobe Illustrator 29.5.1, SVG Export Plug-In . SVG Version: 2.1.0 Build 141)  -->
  <defs>
    <style>
      .st0 {
        fill: #001a2d;
      }
    </style>
  </defs>
  <g id="Capa_1">
    <g id="Capa_1-2">
      <path class="st0" d="M1844.8,190.2c-4.1-4.1-9.7-6.3-15.6-5.5-2.4.4-4.7,1.3-6.6,2.5-3.5-5.3-9.4-8.5-15.7-7.5-4.5.7-8.2,3.3-10.5,6.9-6.5-6.6-15.4-10.2-24.6-8.8-3.3.5-6.3,1.7-9.1,3.2-6-11.1-17.7-17.8-30-16-9.9,1.5-17.8,8.3-21.8,17.3-8.2-4.5-17.6-6.5-27.4-5-5.5.8-10.5,2.8-15.2,5.4-6.8-13.4-20.7-21.7-35.3-19.5-5.3.8-9.9,3-14,6-5-17.4-21-29-37.9-26.4-7.2,1.1-13.4,4.6-18.3,9.6-12.4-24.6-37.8-39.6-64.5-35.6-10.5,1.6-20,6-27.9,12.4-16.9-21.1-43-32.9-70.1-28.8-20.3,3.1-37.3,14.6-48.8,30.7-7-3-14.6-4.1-22.5-2.9-7.7,1.2-14.6,4.5-20.3,9.3-10.4-26.9-36.7-44-64.2-39.8-8.7,1.3-16.7,4.7-23.6,9.6-13.7-24.1-39.7-38.5-66.7-34.4-11.8,1.8-22.2,6.9-30.8,14.3-27.7-32.1-68.7-49.7-111.2-43.2-48.6,7.4-85.8,44.3-99.4,91.6-6.1-.9-12.5-1-18.8,0-27,4.1-47.5,25.1-54,51.8-16.3-6.6-37.9-6.1-58.9,3.1-25,11-42.5,31.3-47,51.7-4.1-.6-8.2-.6-12.4,0-11.6,1.7-21.4,8.1-28.2,17.1-9.9-7.7-22.4-11.5-35.3-9.5-23.8,3.6-40.7,25.7-40.5,51-9.4-12.4-24.3-19.5-39.9-17.1-23.3,3.6-39.1,27-35.3,52.4,0,.3,0,.5.2.8-65.4,13.7-112.6,36.9-109.7,55.7,2.7,17.8,49.6,26,111.2,21.3,9.1,10.8,22.7,16.7,36.9,14.6,11.1-1.7,20.4-8,26.5-16.9,12.3,15.5,31.2,24.1,51,21.1,14.6-2.2,27-10.5,35.3-22.1,9.8,15.5,27.1,24.7,45.1,21.9,8.2-1.3,15.5-4.9,21.6-10,6.2,2.4,12.9,3.2,19.7,2.2,3.9-.6,7.5-1.8,10.9-3.4,4.6,1.1,9.3,1.9,14.1,2.1,16.2,10.7,35.7,15.5,55.6,12.5,26.3-4,47.7-21,59.5-44.1,16.6,11.8,37,17.4,57.9,14.2,14.8-2.3,28-8.7,38.9-17.9,11.2,5.9,23.9,8.4,37,6.3,11.1-1.7,21-6.4,29.2-13.2,19.2,18.7,45.3,28.4,72.3,24.3,21.9-3.3,40.6-15.3,53.6-32.3,8.6,4.7,18.6,6.8,28.8,5.2,13-2,23.8-9.4,31-19.8,14.6,14.3,34.7,21.8,55.4,18.7,23.6-3.6,42.3-20.2,50.9-42.3,9.4,11.2,23.5,17.4,38.2,15.2,8.8-1.3,16.5-5.5,22.5-11.6,21.6,8.6,49.3,11.8,78.5,7.4,42.1-6.4,76.4-26.8,92.1-51.5,10,10.2,24,15.7,38.5,13.5,17.6-2.7,31.1-15.9,36.2-33,5.3,1.3,11,1.7,16.6.8,14.3-2.2,26-11.3,32.5-23.8,6.5,6.9,15.6,10.7,25.3,9.3,11-1.7,19.4-9.8,22.8-20.3h2.3c8.1-1.2,14.9-6,19.3-12.6,3.7,2.5,8,3.7,12.6,3,5.2-.8,9.4-3.8,12.2-8,3.1,1.5,6.6,2.1,10.1,1.6,5.2-.8,9.4-3.8,12.2-7.9.4,0,.9,0,1.3-.2,20.4-3.1,36-11.6,34.9-18.9-.9-7.3-18.4-10.7-38.7-7.6v-.2h0Z"/>
      <path class="st0" d="M943.9,357.3c1.1-22.8-59.8-45.6-142-55.3v-.9c1.5-30.7-20.8-57.2-50-59-19.4-1.2-36.8,8.7-46.9,24.6-2.9-30.4-26.3-55-56.1-56.8-16-1-30.9,4.8-42.2,15-9.5-10-22.4-16.6-36.8-17.5-5.3-.3-10.3.2-15.2,1.3-8-24-32-46.5-64.2-57-27-8.8-53.6-7.2-72.9,2.3-11.4-31.2-39.1-54.3-72.8-56.4-8-.5-15.7.3-23.1,2C299.4,44.4,248.9,4.1,188.3.3c-53-3.3-101.3,22-131.3,63.2-11.6-7.9-25-12.9-39.7-13.9-13.8-.9-27,2-38.6,7.7l-91.7,365.3c9.3-4.8,17.6-11.4,24.5-19.4,10.1,11.7,24.4,19.5,40.7,20.5,12.7.8,24.7-2.7,34.7-9.2,18.2,18.9,42.6,31.3,70.1,33,33.8,2.1,64.7-12.3,85.9-36.5,11,7.3,23.7,12,37.6,12.8,16.3,1,31.7-3.3,44.7-11.4,14.5,9.9,31.5,16.3,50.1,17.4,26.2,1.7,50.5-7.2,69.5-23,17.5,26.4,45.9,44.6,78.8,46.6,24.8,1.6,48.3-6.3,66.8-20.7,5.9-.8,11.6-2.2,17-4,4.4,1.6,8.9,2.7,13.7,2.9,8.5.6,16.7-1.2,23.9-4.7,8,5.6,17.5,9.1,27.8,9.7,22.5,1.4,42.7-11.3,52.8-30.9,11.7,13,27.9,21.6,46.1,22.8,24.6,1.6,46.9-10.8,60-30.5,8.7,10,20.9,16.6,34.7,17.5,17.6,1.1,33.7-7.4,43.5-21.2,76.3-.8,133-15.5,134.1-37.1h-.2l.1.1h0Z"/>
    </g>
  </g>
</svg>