<?xml version="1.0" encoding="UTF-8"?>
<svg id="Layer_1" xmlns="http://www.w3.org/2000/svg" version="1.1" viewBox="0 0 1440 347">
  <!-- Generator: Adobe Illustrator 29.5.1, SVG Export Plug-In . SVG Version: 2.1.0 Build 141)  -->
  <defs>
    <style>
      .st0 {
        fill: #063f5b;
      }
    </style>
  </defs>
  <path class="st0" d="M1738.29,214.47c-7.4-.52-14.2-.32-19.44.45-1.18-4.54-7.18-7.94-14.39-7.87-7.31.07-13.31,3.66-14.3,8.29-3.19-2.91-7.47-4.57-12.1-4.18-4.21.36-7.88,2.36-10.53,5.31-3.73-4.54-9.35-7.29-15.48-7.29-2.42-5.67-8.13-9.43-14.52-8.88-2.2.19-4.24.91-6.06,1.98-5.33-7.97-14.59-12.86-24.7-12.02-6.84.58-12.84,3.69-17.27,8.32-6.86-4.41-15.1-6.71-23.81-5.96-5.55.45-10.72,2.14-15.29,4.66-2.81-13.38-15-22.87-28.79-21.7-1.98.16-3.86.55-5.68,1.1,0-.23,0-.42-.03-.65-1.24-15.19-14.36-26.46-29.33-25.2-2.01.16-3.96.58-5.81,1.17-9.67-27.05-36.16-45.35-65.78-42.85-13.94,1.17-26.42,6.83-36.35,15.39-4.47-23.74-25.98-40.72-50.23-38.68-13.7,1.17-25.51,8.16-33.32,18.37-7.41-43.21-46.16-74.31-90.07-70.61-20.2,1.68-38.11,10.49-51.61,23.74-22.21-26.59-56.3-42.34-93.16-39.23-52.98,4.47-94.09,46.29-100.25,97.85-7.69-1.56-15.7-2.14-23.94-1.46-43.85,3.69-77.17,40.2-78.61,83.76-5.27-1.36-10.82-1.94-16.57-1.46-18.57,1.56-33.89,13.25-41.23,29.25-5.39-1.13-10.98-1.56-16.76-1.07-20.39,1.72-37.47,13.86-46.63,30.84-4.21-2.4-9.13-3.56-14.27-3.14-11.36.97-20.3,9.46-22.44,20.24-2.36-.81-4.91-1.2-7.56-.97-8.39.71-14.91,7-16.56,14.93-5.78,1.68-10.4,5.8-12.99,11.11-.19,0-.38-.03-.61,0-4.63.39-8.59,2.75-11.23,6.15-1.76-4.4-8.23-6.96-15.45-5.8-7.12,1.17-12.48,5.51-12.93,10.17-5.3.13-12.03,1.04-19.24,2.82-15.8,3.86-27.83,10.17-26.91,14.15.86,3.56,11.84,4.02,25.47,1.3,3.16,2.27,9.45,3.66,16.72,3.3,6.48-.32,12.1-1.94,15.29-4.11,2.58,2.72,6.26,4.31,10.28,3.95,3.26-.26,6.06-1.78,8.17-3.98,3.22,3.17,7.69,5.02,12.51,4.63,3.26-.26,6.22-1.52,8.62-3.43,3.03,1.3,6.38,2.01,9.93,1.68,6.06-.52,11.27-3.6,14.74-8.1,5.04,5.51,12.45,8.71,20.39,8.07,8.65-.71,15.89-5.83,19.82-12.99,11.27,18.3,31.91,29.77,54.58,27.86,18.29-1.55,33.89-11.43,43.53-25.69,9.29,18.14,28.63,29.8,49.95,28.02,23.01-1.94,41.2-18.95,45.99-40.65,8.94,19.05,28.76,31.45,50.68,29.61,19.56-1.65,35.65-14.19,42.96-31.26,17.04,23.84,45.51,38.38,76.53,35.76,23.87-2.01,44.62-13.77,58.82-31.1,10.85,14.77,28.66,23.71,48.07,22.09,16.18-1.36,30.06-9.82,39.03-22.03,17.42,12.92,39.32,19.82,62.52,17.85,27.96-2.36,51.99-17.07,67.38-38.38,11.2,7.68,24.92,11.69,39.41,10.46,20.33-1.72,37.47-13.31,47.37-29.7,9.22,7.9,21.38,12.24,34.37,11.17,16.79-1.43,30.73-11.6,37.98-25.72,7.63,11.08,20.62,17.85,34.85,16.65,11.17-.94,20.78-6.64,27.19-14.93,4.82,3.17,10.63,4.83,16.79,4.31,9.83-.84,17.97-6.96,21.96-15.39,4.05,3.92,9.64,6.15,15.64,5.64,6.86-.58,12.57-4.53,15.83-10.11,3.09,2.46,7.02,3.82,11.23,3.47,4.82-.42,8.94-2.98,11.59-6.64,2.42,1.81,5.46,2.85,8.71,2.56,3.99-.32,7.37-2.53,9.48-5.6,3.51,1.62,9.32,2.27,15.77,1.49,7.21-.88,13.21-3.27,15.95-6.06,13.92.39,24.67-1.88,24.93-5.54.29-4.11-12.61-8.36-28.82-9.52l.02.03Z"/>
  <path class="st0" d="M865.62,284.76c0-4.83-25.09-6.87-36.7-6.87,0,0-5.91-7.16-15.89-7.39-4.37-.1-7.91.91-9.83,3.08-1.95-2.17-4.69-3.56-7.82-3.56-2.55,0-4.82.94-6.67,2.46-1.85-3.08-5.17-5.15-9-5.15-2.9,0-5.59,1.2-7.5,3.14-1.69-7.81-8.55-13.67-16.76-13.67-1.47,0-2.87.23-4.21.58-4.12-4.86-10.15-7.97-16.95-7.97-3.54,0-6.86.91-9.83,2.4-1.44-6.87-7.44-12.02-14.65-12.02-3.22,0-6.16,1.04-8.58,2.79-2.74-3.17-6.74-5.25-11.24-5.25-3.48,0-6.67,1.26-9.19,3.27-1.79-9.52-10.02-16.71-19.88-16.71-1.92,0-3.73.36-5.49.87.13-1.17.19-2.33.19-3.56,0-17.78-14.23-32.23-31.76-32.23-9.29,0-17.62,4.05-23.43,10.53-7.09-5.86-15.48-10.11-24.7-12.24.16-.91.29-1.81.29-2.75,0-8.39-6.7-15.22-15-15.22-2.46,0-4.76.65-6.83,1.72-8.43-15.42-24.61-25.91-43.21-25.91-.19,0-.38.03-.57.03.35-2.36.57-4.73.57-7.19,0-27.66-22.12-50.11-49.37-50.11-9.06,0-17.52,2.53-24.83,6.83-7.12-17.72-23.9-30.32-43.69-31.13-2.17-13.99-14.11-24.68-28.5-24.68-8.17,0-15.54,3.47-20.78,9-12.26-9.43-27.48-15.06-44.04-15.06-10.79,0-21,2.43-30.23,6.67C254.59,16.07,228.7.56,199.21.56c-33.03,0-61.53,19.47-75.16,47.68-2.65-.42-5.36-.71-8.14-.71-28.72,0-52.02,23.65-52.02,52.8,0,3.53.35,6.96,1.02,10.33-.19,0-.38-.03-.57-.03-25.76,0-47.08,19.01-51.22,43.99-17.78,3.73-31.92,17.49-36.58,35.14-2.39-.52-4.85-.81-7.4-.81-19.25,0-34.82,15.84-34.82,35.34,0,.2.03.39.03.58-4.28-4.6-10.28-7.55-17.01-7.55-12.22,0-22.12,9.56-23.17,21.67-3.19-3.66-7.79-6.03-12.99-6.03-8.94,0-16.21,6.87-17.23,15.68-30.48,2.33-54.8,5.54-52.88,18.43,1.6,10.75,29.2,16.88,70.15,16.88s59.87-2.36,64.02-6.12c4.15,6.64,11.39,11.11,19.72,11.11,6.7,0,12.73-2.92,16.98-7.52,6.03,11.01,17.59,18.46,30.86,18.46,10.28,0,19.53-4.5,25.98-11.63,6.57,5.57,15.03,8.94,24.29,8.94,6.99,0,13.53-1.98,19.18-5.35,13.66,9.82,30.29,15.61,48.29,15.61,16.6,0,32.01-4.96,45.03-13.41,9.06,3.4,18.8,5.34,29.04,5.34,12.35,0,24-2.78,34.57-7.64,3.38,21.31,21.51,37.61,43.47,37.61,18.99,0,35.17-12.21,41.33-29.35,14.33,8.36,30.89,13.21,48.61,13.21,15.67,0,30.42-3.85,43.57-10.49,5.39,9.98,15.86,16.78,27.86,16.78,10.44,0,19.66-5.15,25.44-13.02,4.21,1.33,8.71,2.07,13.34,2.07,3.38,0,6.67-.42,9.83-1.13,5.55,9.36,15.64,15.68,27.19,15.68s22.21-6.64,27.64-16.42c34.28,15.77,78.42,9.17,112.12-.71,5.62,9.07,15.54,15.13,26.87,15.13s21.22-6.02,26.87-15.09c3.89,4.66,9.64,7.71,16.12,7.71,6.03,0,11.43-2.59,15.29-6.67,3.7,3.27,8.52,5.34,13.82,5.34,7.47,0,14.01-3.95,17.78-9.88,1.82,3.21,5.2,5.41,9.13,5.41,4.44,0,8.2-2.75,9.8-6.67,1.09.39,2.23.61,3.45.61,3.86,0,7.18-2.1,9.03-5.21,5.94,5.77,23.39,1.17,26.14-4.83,18.89-.13,31.76-3.86,31.76-7.06h-.02Z"/>
</svg>