<?xml version="1.0" encoding="UTF-8"?>
<svg id="Layer_1" xmlns="http://www.w3.org/2000/svg" version="1.1" viewBox="0 0 1440 314">
  <!-- Generator: Adobe Illustrator 29.5.1, SVG Export Plug-In . SVG Version: 2.1.0 Build 141)  -->
  <defs>
    <style>
      .st0 {
        fill: #032f50;
      }
    </style>
  </defs>
  <path class="st0" d="M1976.86,259.24c-3.73-4.5-9.16-7.26-15.06-6.87-2.46.16-4.76.88-6.83,1.98-3.04-5.7-8.75-9.39-15.1-8.97-4.5.29-8.43,2.59-11.14,6.06-5.87-7.22-14.46-11.63-23.87-10.98-3.32.23-6.42,1.2-9.32,2.53-5.04-11.76-16.18-19.57-28.63-18.72-10.02.68-18.48,6.83-23.2,15.64-7.82-5.28-17.08-8.06-26.88-7.38-5.55.39-10.78,1.88-15.6,4.21-5.65-14.15-18.77-23.71-33.51-22.71-5.3.36-10.15,2.17-14.46,4.83-3.51-18.01-18.48-31.09-35.62-29.93-7.28.49-13.79,3.5-19.02,8.16-10.28-25.91-34.37-43.34-61.31-41.49-10.63.71-20.43,4.37-28.82,10.14-15.16-22.8-40.12-36.99-67.47-35.11-20.46,1.39-38.43,11.56-51.23,26.88-6.67-3.6-14.26-5.44-22.15-4.92-7.82.52-14.96,3.3-21.06,7.68-8.2-28.05-32.87-47.65-60.7-45.77-8.85.61-17.08,3.37-24.36,7.71-11.61-25.52-36.28-42.4-63.67-40.52-11.87.81-22.72,5.09-31.95,11.79-24.89-34.82-64.34-56.17-107.3-53.22-49.08,3.34-89.33,37.48-106.79,84.18-6.03-1.46-12.28-2.11-18.76-1.68-27.23,1.85-49.41,21.38-58.15,47.81-15.77-8.07-37.34-9.36-59.08-1.85-25.92,8.97-45,28.02-51.16,48.33-3.99-.94-8.11-1.33-12.35-1.04-11.68.81-21.99,6.38-29.55,14.87-9.29-8.62-21.42-13.51-34.44-12.63-24.1,1.65-42.73,22.48-44.62,48.16-8.36-13.35-22.66-21.77-38.33-20.7-23.62,1.62-41.33,23.97-39.64,49.98.03.26.06.55.1.81-66.39,8.26-115.44,27.73-114.16,46.97,1.21,18.24,47.33,30.58,109.12,31.1,8.17,11.66,21.29,18.85,35.55,17.88,11.17-.74,20.97-6.38,27.86-14.87,10.95,16.68,29.17,27.05,49.09,25.72,14.78-1,27.73-8.32,37.02-19.37,8.46,16.52,24.96,27.27,43.21,26.04,8.3-.55,15.89-3.56,22.34-8.29,5.94,2.95,12.54,4.4,19.47,3.92,3.89-.26,7.6-1.17,11.07-2.53,4.5,1.52,9.1,2.69,13.85,3.37,15.29,12.15,34.28,18.79,54.42,17.39,26.59-1.81,49.31-17.2,63.13-39.58,15.64,13.31,35.46,20.76,56.62,19.31,14.97-1,28.69-6.38,40.31-14.8,10.66,6.9,23.2,10.49,36.38,9.59,11.21-.78,21.48-4.7,30.26-10.92,17.52,20.5,42.8,32.62,70.15,30.74,22.18-1.52,41.78-12.05,56.24-28.05,8.23,5.51,18,8.45,28.27,7.74,13.09-.91,24.58-7.48,32.65-17.39,13.34,15.74,32.72,25.07,53.62,23.64,23.88-1.62,43.89-16.88,54.32-38.45,8.43,12.15,22.03,19.63,36.83,18.62,8.91-.62,16.95-4.21,23.43-9.82,20.87,10.59,48.16,16.13,77.72,14.12,42.48-2.88,78.44-20.54,96.16-44.18,9.16,11.21,22.66,17.94,37.31,16.94,17.77-1.2,32.39-13.44,38.9-30.25,5.2,1.78,10.76,2.62,16.5,2.23,14.46-.97,26.81-9.23,34.44-21.31,5.87,7.58,14.71,12.18,24.35,11.53,11.08-.74,20.17-8.26,24.48-18.59.8.03,1.57.16,2.36.1,8.21-.55,15.39-4.79,20.3-11.14,3.45,2.79,7.69,4.4,12.26,4.08,5.2-.36,9.73-3.01,12.86-7.03,2.97,1.75,6.38,2.69,9.96,2.46,5.17-.36,9.67-2.98,12.8-6.96.44-.03.86-.03,1.3-.07,20.59-1.39,36.87-8.62,36.36-16.13-.45-7.45-17.53-12.41-38.08-11.01h0Z"/>
  <path class="st0" d="M805.52,366.06c1.34-2.66,2.17-5.54,2.33-8.62.67-13.09-10.66-24.2-25.31-24.78-7.28-.29-13.98,2.07-18.99,6.09-.35-15.71-14.27-28.7-32.11-29.41-6.03-.26-11.74.97-16.76,3.24.29-1.13.51-2.3.58-3.5.61-11.92-9.7-22.03-23.08-22.58-2.23-.1-4.4.2-6.51.62,2.62-4.21,4.21-9.01,4.47-14.16.92-17.98-14.65-33.2-34.76-34.01-10.44-.42-20.01,3.11-26.97,9.13-4.28-24.78-27.61-44.28-56.75-45.44-15.22-.62-29.33,3.89-40.34,11.79.16-1.04.29-2.07.35-3.11.89-17.39-14.17-32.1-33.64-32.91-1.02-.03-2.01-.03-3,0,.22-1.55.41-3.11.51-4.7,1.53-29.67-24.19-54.84-57.42-56.17-3.77-.16-7.47.03-11.07.49.89-2.75,1.5-5.64,1.66-8.62,1.05-20.31-16.53-37.51-39.29-38.45-18.32-.74-34.34,9.3-40.44,23.84-9.16-19.01-28.95-33.07-53.01-35.89C284.11,26.28,250.69,2.02,210.03.34c-52.44-2.14-96.86,34.08-99.26,80.91-.45,8.81.64,17.36,3,25.49-42.16,1.2-76.85,31.16-78.8,69.45-.48,9.62,1.18,18.88,4.53,27.43-28.44,3.95-50.81,25.33-52.18,52.02-.03.74.03,1.46.03,2.17-20.55-.19-38.08,12.67-42.22,30.19-12.26.2-22.4,8.78-22.98,19.86-.03.68.1,1.3.13,1.94-2.01-.71-4.18-1.23-6.48-1.33-10.88-.45-20.11,7.09-20.62,16.81-.03.32.06.65.06.97-26.01.1-45.51,3.53-45.77,8.62-.32,5.96,25.98,11.86,58.76,13.18,21.61.87,40.53-.45,51.07-3.17,11.04,4.6,25.25,7.68,40.92,8.29,21.86.91,41.43-3.17,53.65-10.11,18.93,19.24,46.21,31.87,77.11,33.14,27.74,1.13,53.52-7.09,73.53-21.51,13.66,11.82,31.95,19.47,52.47,20.31,25.63,1.04,48.96-8.71,64.6-24.75,12.89,21.96,38.08,37.44,67.82,38.64,20.39.84,39.32-5.21,54.1-15.81,7.85,6.25,18.06,10.24,29.39,10.69,12.58.52,24.19-3.43,33.07-10.2,2.78,1.94,5.87,3.6,9.19,4.86,4.95,6.38,13.05,10.72,22.44,11.11,11.04.45,20.9-4.7,26.17-12.63,6.86,10.62,19.41,18.04,34.15,18.66,15.86.65,30.07-6.74,37.66-18.14,4.37,5.47,11.33,9.23,19.44,9.56,9.73.39,18.35-4.21,22.95-11.24,5.84,5.6,19.34,9.88,35.3,10.53,11.97.49,22.79-1.17,30.13-4.18,4.56.68,9.54,1.2,14.78,1.39,5.78.23,11.27.1,16.21-.29,6.92,2.1,16.37,3.63,26.84,4.05,21.64.87,39.42-3.17,39.7-9.07.29-5.6-15.32-10.85-35.39-12.11h-.01Z"/>
</svg>