<svg xml:space="preserve" viewBox="0 0 100 100" y="0" x="0" xmlns="http://www.w3.org/2000/svg" id="圖層_1" version="1.1" preserveAspectRatio="xMidYMid" width="200" height="200" xmlns:xlink="http://www.w3.org/1999/xlink" style="margin-top:0px;margin-right:0px;margin-bottom:0px;margin-left:0px;display:block;shape-rendering:auto;background-position-x:0%;background-position-y:0%;background-size:auto;background-origin:padding-box;background-clip:border-box;background:scroll rgb(255, 255, 255) none  repeat;width:200px;height:200px;;animation:none"><g class="ldl-scale" style="transform-origin:50px 50px;transform:matrix(0.8, 0, 0, 0.8, 0, 0);;animation:none"><g class="ldl-ani"><g class="ldl-layer"><g class="ldl-ani" style="transform-origin:50px 50px;transform:matrix(1.03, 0, 0, 1.03, 0, 0);animation-duration:1s;animation-timing-function:linear;animation-delay:-0.5625s;animation-iteration-count:infinite;animation-direction:normal;animation-fill-mode:forwards;animation-play-state:paused;animation-name:animate;animation-timeline:auto;animation-range-start:normal;animation-range-end:normal;transform-box:view-box;;animation:none"><path fill="#ffdc6d" d="M66.3 52.9c1 .2 1.5 1.1 1.2 2.1-.9 2.6-2.1 5-3.4 7.1-1.7 2.6-3.6 4.9-5.6 7-4.1 4.2-8.8 7.5-13.8 10.1-2.5 1.3-5.1 2.5-7.7 3.3-2.6.9-5.4 1.6-8.1 2-2.8.4-5.6.5-8.3.1-2.7-.4-5.4-1.3-7.5-3.1 2.4 1.3 5 1.7 7.6 1.7 2.6-.1 5.2-.6 7.6-1.4 2.5-.8 4.8-1.9 7.1-3.1 2.3-1.2 4.4-2.7 6.4-4.2 4-3.1 7.6-6.8 10.4-10.8 1.4-2 2.6-4.1 3.5-6.2.6-1.5 1.1-3.1 1.4-4.5.2-.9 1-1.5 1.8-1.3l7.4 1.2z" style="stroke-width:1px;fill:rgb(255, 220, 109);;animation:none"></path></g></g>
<g class="ldl-layer"><g class="ldl-ani" style="transform-origin:50px 50px;transform:matrix(1.01568, 0, 0, 1.01568, 0, 0);animation-duration:1s;animation-timing-function:linear;animation-delay:-0.625s;animation-iteration-count:infinite;animation-direction:normal;animation-fill-mode:forwards;animation-play-state:paused;animation-name:animate;animation-timeline:auto;animation-range-start:normal;animation-range-end:normal;transform-box:view-box;;animation:none"><path fill="#ffdc6d" d="M65.1 33.5c.3-1 1.4-1.4 2.3-.9 1.4.8 2.7 1.8 3.8 3 1.4 1.7 2.3 3.7 2.8 5.5 1 3.7.7 7 .1 10-1.2 6.1-3.8 11.3-6.8 16.1-3 4.8-6.5 9.1-10.5 13-4 3.8-8.3 7.2-13.1 9.8 4.3-3.3 7.9-7.3 11-11.6 3.1-4.3 5.7-8.9 7.7-13.7 1.9-4.8 3.3-9.8 3.4-14.5.1-2.3-.3-4.5-1-6-.4-.7-.8-1.2-1.2-1.5-.7-.4-1-1.1-.8-1.9l2.3-7.3z" style="stroke-width:1px;fill:rgb(255, 220, 109);;animation:none"></path></g></g>
<g class="ldl-layer"><g class="ldl-ani" style="transform-origin:50px 50px;transform:matrix(0.99625, 0, 0, 0.99625, 0, 0);animation-duration:1s;animation-timing-function:linear;animation-delay:-0.6875s;animation-iteration-count:infinite;animation-direction:normal;animation-fill-mode:forwards;animation-play-state:paused;animation-name:animate;animation-timeline:auto;animation-range-start:normal;animation-range-end:normal;transform-box:view-box;;animation:none"><path fill="#ffdc6d" d="M49.1 32c-.6-.7-.4-1.9.4-2.4 1.8-1.1 3.7-2.1 5.7-2.8 2.6-.9 5.3-1.6 8.1-1.7 2.8-.1 5.6.3 8.3 1.3 2.6 1 5 2.5 6.9 4.5 1.9 2 3.1 4.3 4 6.7.9 2.4 1.3 4.9 1.3 7.3.1 4.9-1.1 9.5-3 13.7 1-4.5 1.2-9.1.2-13.4-.5-2.1-1.3-4.1-2.3-5.9-1.1-1.7-2.4-3.3-4-4.3-3.1-2.2-6.9-2.6-10.4-1.7-1.8.5-3.4 1.3-5 2.2-1.1.7-2.1 1.5-3.1 2.4-.7.6-1.7.6-2.3-.1L49.1 32z" style="stroke-width:1px;fill:rgb(255, 220, 109);;animation:none"></path></g></g>
<g class="ldl-layer"><g class="ldl-ani" style="transform-origin:50px 50px;transform:matrix(0.97254, 0, 0, 0.97254, 0, 0);animation-duration:1s;animation-timing-function:linear;animation-delay:-0.75s;animation-iteration-count:infinite;animation-direction:normal;animation-fill-mode:forwards;animation-play-state:paused;animation-name:animate;animation-timeline:auto;animation-range-start:normal;animation-range-end:normal;transform-box:view-box;;animation:none"><path fill="#ffdc6d" d="M33.7 47.1c-1-.2-1.5-1.1-1.2-2.1.9-2.6 2.1-5 3.4-7.1 1.7-2.6 3.6-4.9 5.6-7 4.1-4.2 8.8-7.5 13.8-10.1 2.5-1.3 5.1-2.5 7.7-3.3 2.6-.9 5.4-1.6 8.1-2 2.8-.4 5.6-.5 8.3-.1 2.7.4 5.4 1.3 7.5 3.1-2.4-1.3-5-1.7-7.6-1.7-2.6.1-5.2.6-7.6 1.4-2.5.8-4.8 1.9-7.1 3.1-2.3 1.2-4.4 2.7-6.4 4.2-4 3.1-7.6 6.8-10.4 10.8-1.4 2-2.6 4.1-3.5 6.2-.6 1.5-1.1 3.1-1.4 4.5-.2.9-1 1.5-1.8 1.3l-7.4-1.2z" style="stroke-width:1px;fill:rgb(255, 220, 109);;animation:none"></path></g></g>
<g class="ldl-layer"><g class="ldl-ani" style="transform-origin:50px 50px;transform:matrix(0.943634, 0, 0, 0.943634, 0, 0);animation-duration:1s;animation-timing-function:linear;animation-delay:-0.8125s;animation-iteration-count:infinite;animation-direction:normal;animation-fill-mode:forwards;animation-play-state:paused;animation-name:animate;animation-timeline:auto;animation-range-start:normal;animation-range-end:normal;transform-box:view-box;;animation:none"><path fill="#ffdc6d" d="M34.9 66.5c-.3 1-1.4 1.4-2.3.9-1.4-.8-2.7-1.8-3.8-3-1.4-1.7-2.3-3.7-2.8-5.5-1-3.7-.7-7-.1-10 1.2-6.1 3.8-11.3 6.8-16.1 3-4.8 6.5-9.1 10.5-13 4-3.8 8.3-7.2 13.1-9.8-4.3 3.3-7.9 7.3-11 11.6-3.1 4.3-5.7 8.9-7.7 13.7-1.9 4.8-3.3 9.8-3.4 14.5-.1 2.3.3 4.5 1 6 .4.7.8 1.2 1.2 1.5.7.4 1 1.1.8 1.9l-2.3 7.3z" style="stroke-width:1px;fill:rgb(255, 220, 109);;animation:none"></path></g></g>
<g class="ldl-layer"><g class="ldl-ani" style="transform-origin:50px 50px;transform:matrix(0.921517, 0, 0, 0.921517, 0, 0);animation-duration:1s;animation-timing-function:linear;animation-delay:-0.875s;animation-iteration-count:infinite;animation-direction:normal;animation-fill-mode:forwards;animation-play-state:paused;animation-name:animate;animation-timeline:auto;animation-range-start:normal;animation-range-end:normal;transform-box:view-box;;animation:none"><path fill="#ffdc6d" d="M50.9 68c.6.7.4 1.9-.4 2.4-1.8 1.1-3.7 2.1-5.7 2.8-2.6.9-5.3 1.6-8.1 1.7-2.8.1-5.6-.3-8.3-1.3-2.6-1-5-2.5-6.9-4.5-1.9-2-3.1-4.3-4-6.7-.9-2.4-1.3-4.9-1.3-7.3-.1-4.9 1.1-9.5 3-13.7-1 4.5-1.2 9.1-.2 13.4.5 2.1 1.3 4.1 2.3 5.9 1.1 1.7 2.4 3.3 4 4.3 3.1 2.2 6.9 2.6 10.4 1.7 1.8-.5 3.4-1.3 5-2.2 1.1-.7 2.1-1.5 3.1-2.4.7-.6 1.7-.6 2.3.1l4.8 5.8z" style="stroke-width:1px;fill:rgb(255, 220, 109);;animation:none"></path></g></g>
<g class="ldl-layer"><g class="ldl-ani" style="transform-origin:50px 50px;transform:matrix(0.910362, 0, 0, 0.910362, 0, 0);animation-duration:1s;animation-timing-function:linear;animation-delay:-0.9375s;animation-iteration-count:infinite;animation-direction:normal;animation-fill-mode:forwards;animation-play-state:paused;animation-name:animate;animation-timeline:auto;animation-range-start:normal;animation-range-end:normal;transform-box:view-box;;animation:none"><path fill="#ffdc6d" d="M56.5 63.9c-9.8 8.3-20.8 8.9-24.5 1.5-3.7-7.4 1.3-20.2 11.1-28.5s20.8-8.9 24.5-1.5-1.2 20.2-11.1 28.5z" style="stroke-width:1px;fill:rgb(255, 220, 109);;animation:none"></path></g></g>
<g class="ldl-layer"><g class="ldl-ani" style="transform-origin:50px 50px;transform:matrix(0.91, 0, 0, 0.91, 0, 0);animation-duration:1s;animation-timing-function:linear;animation-delay:-1s;animation-iteration-count:infinite;animation-direction:normal;animation-fill-mode:forwards;animation-play-state:paused;animation-name:animate;animation-timeline:auto;animation-range-start:normal;animation-range-end:normal;transform-box:view-box;;animation:none"><path fill="#fff" d="M53.9 58.5c-5.9 5-12.5 5.4-14.7.9s.8-12.1 6.7-17.1 12.5-5.4 14.7-.9-.8 12.1-6.7 17.1z" style="stroke-width:1px;fill:rgb(255, 255, 255);;animation:none"></path></g></g>
<metadata xmlns:d="https://loading.io/stock/"></metadata></g></g>
<STYLE type="text/css">@keyframes animate { 0.00% {transform: translate(0.00px,0.00px) rotate(0.00deg) scale(0.91, 0.91) skew(0deg, 0.00deg) ;opacity: 1.00;}4.00% {transform: translate(0.00px,0.00px) rotate(0.00deg) scale(0.91, 0.91) ;}8.00% {animation-timing-function: cubic-bezier(0.69,0.60,0.35,0.27);transform: translate(0.00px,0.00px) rotate(0.00deg) scale(0.91, 0.91) ;}14.00% {transform: translate(0.00px,0.00px) rotate(0.00deg) scale(0.93, 0.93) ;}18.00% {transform: translate(0.00px,0.00px) rotate(0.00deg) scale(0.94, 0.94) ;}22.00% {animation-timing-function: cubic-bezier(0.67,0.66,0.34,0.33);transform: translate(0.00px,0.00px) rotate(0.00deg) scale(0.96, 0.96) ;}26.00% {transform: translate(0.00px,0.00px) rotate(0.00deg) scale(0.97, 0.97) ;}30.00% {transform: translate(0.00px,0.00px) rotate(0.00deg) scale(0.99, 0.99) ;}34.00% {animation-timing-function: cubic-bezier(0.65,0.71,0.32,0.38);transform: translate(0.00px,0.00px) rotate(0.00deg) scale(1.01, 1.01) ;}40.00% {animation-timing-function: cubic-bezier(0.64,0.74,0.31,0.41);transform: translate(0.00px,0.00px) rotate(0.00deg) scale(1.02, 1.02) ;}46.00% {animation-timing-function: cubic-bezier(0.60,0.91,0.23,0.63);transform: translate(0.00px,0.00px) rotate(0.00deg) scale(1.03, 1.03) ;}50.00% {transform: translate(0.00px,0.00px) rotate(0.00deg) scale(1.03, 1.03) ;}54.00% {transform: translate(0.00px,0.00px) rotate(0.00deg) scale(1.03, 1.03) ;}58.00% {animation-timing-function: cubic-bezier(0.69,0.60,0.35,0.27);transform: translate(0.00px,0.00px) rotate(0.00deg) scale(1.03, 1.03) ;}64.00% {transform: translate(0.00px,0.00px) rotate(0.00deg) scale(1.01, 1.01) ;}68.00% {transform: translate(0.00px,0.00px) rotate(0.00deg) scale(1.00, 1.00) ;}72.00% {animation-timing-function: cubic-bezier(0.67,0.66,0.34,0.33);transform: translate(0.00px,0.00px) rotate(0.00deg) scale(0.98, 0.98) ;}76.00% {animation-timing-function: cubic-bezier(0.66,0.68,0.33,0.35);transform: translate(0.00px,0.00px) rotate(0.00deg) scale(0.97, 0.97) ;}82.00% {animation-timing-function: cubic-bezier(0.65,0.71,0.32,0.38);transform: translate(0.00px,0.00px) rotate(0.00deg) scale(0.94, 0.94) ;}88.00% {animation-timing-function: cubic-bezier(0.65,0.73,0.31,0.40);transform: translate(0.00px,0.00px) rotate(0.00deg) scale(0.92, 0.92) ;}94.00% {animation-timing-function: cubic-bezier(0.63,0.80,0.28,0.48);transform: translate(0.00px,0.00px) rotate(0.00deg) scale(0.91, 0.91) ;}100.00% {animation-timing-function: cubic-bezier(0.63,0.80,0.28,0.48);transform: translate(0.00px,0.00px) rotate(0.00deg) scale(0.91, 0.91) ;} }</STYLE><!-- [ldio] generated by https://loading.io --></svg>