<?xml version="1.0" encoding="UTF-8"?>
<svg id="Capa_1" xmlns="http://www.w3.org/2000/svg" viewBox="0 0 3231.01 696.91">
  <defs>
    <style>
      .cls-1 {
        fill: #424242;
        letter-spacing: -.08em;
      }

      .cls-1, .cls-2, .cls-3, .cls-4 {
        isolation: isolate;
      }

      .cls-1, .cls-2, .cls-4 {
        font-family: Arial-BoldMT, Arial;
        font-size: 550px;
        font-weight: 700;
      }

      .cls-2 {
        letter-spacing: -.06em;
      }

      .cls-2, .cls-4 {
        fill: none;
        stroke: #ff7425;
        stroke-miterlimit: 10;
        stroke-width: 18px;
      }

      .cls-5 {
        fill: #ff7425;
      }

      .cls-6 {
        fill: #fcf1de;
      }

      .cls-4 {
        letter-spacing: -.09em;
      }
    </style>
  </defs>
  <g id="Layer_1">
    <path class="cls-5" d="M62.8,181.45c.6-.9,1.5-2.3,2.6-4,2.4-3.8,3.2-5.5,4.7-8,1-1.6,2.6-3.8,5.8-8.3,3.8-5.3,5.7-7.9,6.9-9.2,2.6-2.8,4.6-5.1,7.7-7.6,1.7-1.3,2.1-1.5,2.6-2.4,1.1-1.8,1-3.9-1.1-11.1-.6-2-1.3-4.1-3.3-9.9-1.8-5-2.6-7.5-3.2-8.6-2.9-5.4-6.1-7.5-5.5-8.4.6-.8,3.7.3,8.3,2.1,4.3,1.6,7.4,2.8,11.2,5.2,3.6,2.2,6.1,4.4,7.3,5.5,1.5,1.3,2.5,2.2,3.7,3.6,3.1,3.6,2.9,5.2,4.4,5.6,1.8.5,3.2-1.6,8.6-5.6,3.4-2.5,5.7-4.2,9.1-5.5,1-.4,1.6-.6,8.5-2.2,7.6-1.8,8.1-1.9,8.3-2.4,1.7-3.7-13.1-14.1-21.4-19.2-4.7-2.9-9-5.1-17.7-9.4-12.1-6-16.6-7.5-18.2-8.1-3.5-1.1-3.7-1-12.3-3.6-3.5-1.1-7-2-10.5-3-7.1-2-8.4-2.5-9.8-1.6-1.7,1.1-1.2,2.8-2.9,9.9-1,4.1-1.2,3.6-2.7,9.5-.8,2.9-1.3,5.3-2.3,10-1.4,6.3-2.1,9.5-2.4,11.5-.4,2.3-1.1,7.2-1.3,13.4-.1,3.5,0,7.1.3,12.5.7,10.3,1.2,17.3,3.4,25.9,1.5,5.7,4.1,13.7,9.2,22.7"/>
    <path class="cls-5" d="M268.8,411.55c-6.4,4.6-15.3,9.3-32.9,18.5-10.9,5.7-14.6,7.5-24.4,12.9-11.2,6.1-16.9,9.5-23.1,14.4-.6.5-9.5,7.5-14.2,14-.3.4-1.4,2.1-3.5,5-3.7,5.2-3.9,5.4-4.6,6.5-2.8,4.4-5.2,8.3-3.9,10.5.8,1.4,2.6,1.5,11.9,1.6,7.2,0,10.9.1,13.7,0,5.4-.1,9.6-.2,15.3-.6,4.6-.4,8.9-.7,14.6-1.7,6.2-1.1,10.8-2.3,14.4-3.4,7.5-2.1,13.1-4.2,15.2-5,6.3-2.4,10.9-4.7,14-6.2,2-1,9.9-4.9,20-11.2,4.7-3,9.9-6.2,16.4-11.3,6.8-5.3,11.5-9.9,14.9-13.2,4.4-4.3,10.2-10.1,16.7-18.5,3-4,5.1-7.1,7.4-10.5,2.6-3.9,6.2-9.4,10.2-17,3.3-6.2,5.3-11,5.8-12.1,1.8-4.3,2.9-7.3,4.7-12.6,2.5-7.2,3.9-11.2,5.4-17,.6-2.5,1.7-6.8,2.5-12.5.6-3.9.9-7.4,1.2-10.5.2-2.1.4-4.1.5-7,.2-3.5.1-4.2.3-8.9.1-3.3.3-6.2.3-6.7.3-4.9.5-6.4.3-9.2-.1-2.6-.2-4-.9-5.3-.6-1.2-1.5-2.3-5.2-4.9-3.4-2.5-6.1-4.1-6.1-4.1-2.5-1.5-5.7-3.4-10.3-5.4-5.7-2.6-10.3-4-13.2-4.9-5.4-1.6-9-2.4-12.7-3-7.2-1.1-9.2-.9-10.8-1-1.8,0-.9.8-.8,1.2.2,1.5-.6,2.5-.1,5.3.5,2.9,1.5,4.5,3.1,8.2,1.9,4.5,3.1,8,3.5,9.2.7,2.2,1.5,4.7,2.2,8.1.3,1.4.4,2.1,1,7.2.7,6.4,1.1,9.7,1.2,10.7.2,4.3,0,7.6-.2,9.9-.4,5.5-1.3,9.6-1.5,10.5s-.9,4.3-2.8,9.9c-.7,2.1-2.8,8.4-5.8,14.6-1.1,2.4-6.9,14.2-18.5,27-1.8,2-9.1,9.9-21,18.4h0l-.2.1Z"/>
    <path class="cls-6" d="M220.4,288.95c-2.7,1.4-5.5,2.9-8.3,4.4-4,2.2-7.8,4.3-11.5,6.5-2.9,1.7-5.9,3.6-9,5.7-4.7,3.2-9,6.4-12.9,9.5-2.2,1.5-5.6,3.9-9.5,7.1-2.6,2.2-3.8,3.3-6.6,5.8-2.3,2-5.8,4.9-10.2,8.2-4.8,3.1-9.5,6.1-14.3,9.2-6.2,3.2-12.4,6.4-18.6,9.6-4.4,1.7-8.9,3.4-13.3,5.1-4.8,1-9.5,2.1-14.2,3.1-4.1.7-8.2,1.4-12.4,2.1-4,.1-8.1.3-12.1.4.2.4.5.9,1,1.5.8.9,1.5,1.4,2.1,1.8,1.4.9,2.9,1.9,4.6,2.8,2.2,1.1,4.1,1.8,5.4,2.2,1,.3,1.9.6,3.6,1.1s3.1.9,4.1,1.2c1.4.4,2.6.6,3.7.8.4,0,1.9.4,3.9.6,1.2.2,2.3.3,3.2.3,1.2,0,3.1,0,5.2.1h8.9c2.1-.1,5-.3,8.5-.8,3.9-1,7.8-2,11.7-3l19.6-8.1,13.4-7.4,10.9-8.3,11.9-10.8,3.8-5.1v7.4c.2,1.6,0,3.5-.2,5.6-.4,2.2-.9,4.1-1.4,5.7-.2,1.3-.7,3.2-1.8,5.2-1.3,2.5-2.9,4.2-4,5.1-1.1,1.9-2.5,4-4.4,6.1-2.7,3.1-5.5,5.4-7.8,7-2.5,1.9-4.9,3.9-7.4,5.8-3.9,2.4-7.2,4.1-9.5,5.3-1.8.9-3.6,1.8-6.3,3.3-2.3,1.2-4.1,2.3-5.4,3-1.7,1.4-3.4,2.7-5.2,4.1-2,1.6-4,3.1-6,4.5-2.1,1.9-4.3,4-6.6,6.5-2.5,2.8-4.5,5.5-6.2,8-2.1,2.6-4.4,5.7-6.7,9.5-1.8,3-3.2,5.9-4.3,8.5-1.8,4-3.5,8-5.2,12.1l-2.9,9.6-1.8,14,.6,2.8,5.8,3.2c2.5,1.3,5.2,2.6,8.1,3.9,4.2,1.9,8.3,3.4,12.2,4.7,1.6.7,3.4,1.4,5.5,1.9,2.7.7,5.2,1.1,7.3,1.3,2-5.2,4-10.4,5.9-15.6l7.3-11.6c2-3.2,4.6-6.9,8.3-10.7,2.8-2.9,5.6-5.3,8.1-7.1,3.2-3,6.9-6.2,11.2-9.4,3-2.2,5.9-4.1,8.6-5.8,7.7-4.2,15.4-8.4,23.1-12.6,4.9-2.2,9.9-4.6,15-7,5.3-2.6,10.5-5.1,15.6-7.7,5-2.8,10.6-6.4,16.4-10.9,4.9-3.8,9.2-7.6,12.8-11.2,2.6-2.7,5.5-6,8.3-10,2.4-3.4,4.2-6.5,5.8-9.5,1.6-2.5,3.3-5.4,5-8.6,2.1-4.3,3.6-8.3,4.6-11.9.8-2.4,1.2-4.3,1.5-5.7.1-.8.3-1.6.8-5.5.4-3.1.6-4.6.7-5.5.3-2.4.5-5.9.4-10.4,0-1.2-.1-3-.1-5.2v-3.9c0-4-.3-4.4-.3-7.7,0-2.7,0-4,.5-5.8.6-2.2,1.6-3.9,2.4-5,.7-1.3,1.5-2.8,2.7-4.3,1.3-1.7,2.6-3,3.7-4,0-1.5.1-2.4.2-3v-2.4c-1.1,0-2.2-.1-3.4-.2-2.1-.1-4.2-.3-6.4-.3h-8.8c-2.2,0-4.5,0-7,.2-3.5.2-6.8.6-9.7,1.1-4.6,1.1-9.2,2.1-13.9,3.2-4.4,1.3-8.8,2.6-13.1,3.9-3.9,1.4-7.7,2.9-11.6,4.5-2.3.9-4.5,1.8-6.8,2.7-2.2.9-4.5,1.9-6.7,2.8h0l-.1.4h0Z"/>
    <path class="cls-5" d="M307.7,272.25c0-.4.1-1.3,0-1"/>
    <path class="cls-5" d="M356.9,247.35c-.8-2.3-1.6-4.4-2.5-6.5-1.7-4.1-3.3-7.6-4.8-10.8-1.8-3.7-3.1-6.2-5.9-11.2-3.5-6.4-5-8.7-5.9-10.1-1.2-1.9-2.6-3.8-3.2-4.7-1.8-2.5-3.3-4.5-4.4-6-1.3-1.5-2.5-3-3.8-4.5-1.8-1.2-2.6-.9-2.8-.8-.4.2-.5.7-1.2,2.4-.3.6-.6,1.4-1,2.1-.3.5-.5.9-2,3.3-1.5,2.3-1.7,2.5-1.9,2.7-.8,1-.9,1-2.1,2.4-1.4,1.6-2.1,2.4-2.5,3.2-.6,1.1-1.3,2.1-1.8,3.2-.2.4-.4.8-.8.9-.5.2-1-.2-1.9-.7l-.8-.4s-1-.6-2.1-1.1-1.9-.7-3-1c-.7-.2-.8-.2-3.4-.8-1.33-.33-2.17-.53-2.5-.6-1.1-.2-1.9-.3-3.5-.5s-1.7-.2-3.5-.4c-2.2-.3-1.9-.3-2.2-.3-.6,0-1.1-.1-2.1-.3-.13,0-.23-.03-.3-.1-.3-.6,4.2-3.8,5.8-5.5.4-.5,3.4-3.1,5.9-5.7,3.4-3.6,6-7.9,8.4-11.6,1.9-3,3.1-6.3,4.7-9.4,1.1-1.9,2.5-4.6,3.8-8.1.9-2.4,1.7-5.2,3-13.2.6-3.8,1.3-8.6,1.9-14.3.5-4,.9-8.5,1-13.4,0-6.5-.5-12.4-1.3-17.3-.8-5-1.8-10.2-3.1-15.6-.8-3.3-1.5-6.5-2.4-9.6-.7-2.8-1.6-5.8-2.6-8.9-1-3-2.1-5.8-3.1-8.4-2.6,0-5.4.1-8.4.4-8.5.8-15.8,2.8-21.8,5-6,2.5-12,5-18,7.6-4.9,2.7-9.9,5.4-14.8,8.1-3.9,2.6-7.9,5.5-12.1,8.7-4.8,3.8-9.2,7.5-13.1,11.1-3.7,4.5-6.6,8.5-8.7,11.5-2.9,4.1-4.8,6.7-6.9,10.5-2.2,4-3.8,7.4-4.8,9.9-.9,4.3-2.3,5.6-3.4,5.9-.6.2-.9,0-3.1,0-1.6,0-2.8.2-3.9.3-2.2.3-2.2.4-4.8.8-2.7.4-2.4.2-4.3.5-2.8.5-3.6.9-4.1.5-.4-.3-.7-1.3.6-4.2.6-2.6,1.8-6.5,4-10.9,2.7-5.2,4.9-7.3,4.1-8.5-.9-1.4-4.8-.6-15.3,3-8,2.7-14.5,5.3-19,7.1-6.4,3.4-13.2,7.3-20.2,11.8-6.5,4.1-12.4,8.3-17.8,12.4l-11.3,10.9c-4.3,5.8-8.6,11.5-12.9,17.3-2,3.5-4.1,7.3-6.1,11.5-1.8,3.7-3.3,7.2-4.6,10.6-1.3,4.1-2.6,8.1-3.9,12.2-.6,2.8-1.2,5.7-1.8,8.5-1.3,4.7-2.6,9.4-3.8,14.2-.5,1.7-1,3.4-1.7,5.2-1.7,4.7-3.7,8.8-5.7,12.4-2.2,3.6-4.3,7.2-6.5,10.8-1.4,1.9-3,3.9-4.8,6-2.5,2.9-5,5.3-7.3,7.4-3.9,2.5-7.7,4.9-11.6,7.4-4.8,1.9-9.5,3.7-14.3,5.6l-8.2,2c-2.2.1-4.4.2-6.7.3,0,1.5,0,3.1.2,4.9.4,3.7,1.3,6.9,2.3,9.2,2.7-.7,5.1-1.1,7.1-1.4,2.7-.4,4.7-.5,5.3-.5,2.7-.1,5.1,0,7.1.1,1.8.3,3.6.6,5.4.9.5.2,1.3.4,2,.9.9.6,1.5,1.2,1.9,1.7.3.5.5,1.1.7,1.9.3,1.2.3,2.4.3,3.1,0,.6.2,1.4,0,2.3,0,1.3-.4,2.3-.7,3-.2.6-.5,1.4-1.1,2.2-.6,1-1.3,1.7-1.9,2.2-.8.6-1.6,1.3-2.7,1.9-.9.6-1.8,1-2.6,1.4-1.4.6-2.8,1.2-4.2,1.8.6.6,1.3,1.3,2,2,2.8,2.4,5.6,3.7,7.9,4.5,1.6.5,3.6,1,5.8,1.4,2,.3,3.7.5,5.3.5,2.4.3,5,.5,7.6.7,3.6.2,7,.4,10.2.4,4.9-.1,9.8-.2,14.7-.3,6.1-1.2,12.2-2.4,18.3-3.6,6-1.9,12-3.8,18-5.7,7.3-2.9,13-6,17-8.4,5.2-3.1,9.2-5.9,15.3-10.4,2.2-1.6,5.8-4.2,10.2-7.8,4.3-3.4,4.6-3.9,9.5-7.8,4.6-3.7,8.2-6.4,10.6-8.1,3.5-2.6,6-4.4,9.4-6.8,1.1-.8,5.9-4,12.7-8,5.2-3.1,10.2-5.8,15.1-8.2,5.5-2.6,11.1-5.1,16.6-7.6,4.6-2,9.7-4.1,15.4-5.9,5.3-1.7,10.2-3,14.8-4,4.2-1.2,9-2.3,14.2-3.2,3.8-.6,7.3-1.1,10.7-1.4,3.2-.4,6.7-.7,10.4-.9,4.2-.2,8.1-.2,11.7,0,6.2.7,12.4,1.5,18.6,2.2,4.1.9,8.4,1.9,12.9,3.2,3.7,1,7.1,2.1,10.5,3.2,1.8.7,3.3,1.3,4.5,1.9,1.9.9,3,1.4,4.4,2.2,2.8,1.6,3.2,1.9,3.2,1.9,1.5,1,2.1,1.5,2.8,1.2.7-.3,1-1.4,1.1-2-.9-4-2.1-8.4-3.7-13h.1,0ZM207,246.25c-.3.6-1.5.7-3.8.8-1.7,0-2.3,0-4.8-.1h-2.9c-1.7.1-2.9.5-5,1.1-1.1.3-2.3.7-3.9,1.3-1.6.6-2.8,1.3-3.8,1.8-.9.4-1.4.8-2.4,1.3-5,2.8-4.4,2.5-5.2,2.9-4.1,2.4-3.7,2.4-5.9,3.5-.9.5-3.2,1.7-6.2,2.8-3.5,1.3-6.3,1.9-8.1,2.2-3.7.8-3.8.4-8.2,1.2-3.5.6-5.4,1-7.9,2-3.1,1.2-5.5,2.7-6.2,3.2-3.2,2.1-4.8,3.3-4.8,3.3-1.9,1.4-3.2,2.6-4.3,2.1-.4-.2-.7-.6-.8-.9.8-5.8,2.3-10.5,3.6-13.8,1.6-4.2,3.3-7.2,3.9-8.2,1.8-3.2,3.7-5.8,5.3-7.8,2.6-2.9,5.1-5.2,7.1-6.8,1.6-1.3,4-3.1,7.5-4.9,1.4-.7,3.5-1.8,6.5-2.6,2.7-.8,4.7-.9,8.4-1.2,2.1-.2,4.9-.3,8.3-.3,1.8,0,4.4.1,7.4.8,1.4.3,2.5.7,3.9,1.1,1.9.6,4.4,1.5,7.4,2.8,2.3,1.1,4.2,2.1,5.5,2.9,2.9,1.7,5.1,3.4,7.1,5.5,1.4,1.4,2.8,2.9,2.4,3.8h0l-.1.2h0ZM279.5,112.85c-1.7,4.7-2.5,7-3.4,10-.8,3-2.1,7.3-2.7,12.6-.4,3.2-.2,3.7-.2,12.8,0,11.6-.4,15.9-1.5,20.4-.7,2.8-1.6,4.9-2.8,7-.3.6-.6.9-4.2,5.6-3.1,3.9-3.5,4.4-4.2,4.4-1.5,0-2.8-1.9-5.2-5.8-1.3-2.1-2.1-3.3-3.1-5.4-2.9-6.5-3.6-12.7-3.9-15.8-.8-7.5,0-13.4.4-15.6.5-3.2,1.3-8.1,4.1-14,.8-1.8,3.3-6.7,8-11.9,3.9-4.3,7.5-6.8,10.1-8.5.9-.6,3.7-2.5,7.6-4.3.9-.4,7-3.3,7.5-2.4.3.5-1.3,1.5-3,3.9-1.1,1.5-1.7,2.8-3.3,7.2h0s-.2-.2-.2-.2Z"/>
    <g class="cls-3">
      <g class="cls-3">
        <text class="cls-2" transform="translate(360.5 480.85)"><tspan x="0" y="0">F</tspan></text>
        <text class="cls-4" transform="translate(649.18 480.85)"><tspan x="0" y="0">O</tspan></text>
        <text class="cls-2" transform="translate(1027.9 480.85)"><tspan x="0" y="0">X</tspan></text>
      </g>
      <g class="cls-3">
        <text class="cls-1" transform="translate(1373.2 480.85)"><tspan x="0" y="0">STUDIO</tspan></text>
      </g>
    </g>
  </g>
</svg>