<?xml version="1.0" encoding="UTF-8"?>
<svg id="Layer_1" data-name="Layer 1" xmlns="http://www.w3.org/2000/svg" viewBox="0 0 367.65 430.17">
  <defs>
    <style>
      .cls-1 {
        fill: #ff7425;
      }

      .cls-1, .cls-2 {
        stroke-width: 0px;
      }

      .cls-2 {
        fill: #fcf1de;
      }
    </style>
  </defs>
  <path class="cls-1" d="M62.72,116.46c.6-.9,1.51-2.3,2.59-4.03,2.38-3.82,3.17-5.46,4.69-7.96.96-1.58,2.58-3.82,5.81-8.3,3.82-5.29,5.73-7.94,6.88-9.2,2.59-2.85,4.59-5.05,7.74-7.6,1.66-1.34,2.09-1.53,2.62-2.4,1.07-1.78,1.03-3.93-1.08-11.08-.6-2.02-1.27-4.13-3.28-9.87-1.75-5.01-2.64-7.53-3.23-8.64-2.87-5.4-6.11-7.45-5.49-8.37.57-.85,3.73.34,8.32,2.07,4.3,1.62,7.36,2.78,11.24,5.21,3.58,2.24,6.05,4.43,7.31,5.55,1.51,1.35,2.47,2.21,3.65,3.59,3.09,3.61,2.89,5.17,4.38,5.61,1.85.55,3.17-1.56,8.62-5.59,3.37-2.5,5.67-4.21,9.05-5.53,1.03-.4,1.61-.56,8.51-2.18,7.63-1.79,8.05-1.87,8.29-2.4,1.67-3.74-13.11-14.1-21.38-19.2-4.7-2.9-9.03-5.06-17.67-9.38-12.06-6.03-16.59-7.54-18.24-8.08-3.48-1.13-3.67-.96-12.3-3.55-3.48-1.05-6.99-1.97-10.47-2.99C62.1.05,60.76-.46,59.39.4c-1.69,1.06-1.18,2.79-2.92,9.94-1.01,4.13-1.18,3.56-2.73,9.46-.77,2.92-1.31,5.34-2.35,10.05-1.4,6.3-2.1,9.46-2.43,11.48-.38,2.34-1.09,7.19-1.3,13.39-.12,3.48-.08,7.14.29,12.46.71,10.26,1.2,17.32,3.42,25.94,1.48,5.72,4.12,13.7,9.16,22.69"/>
  <path class="cls-1" d="M268.68,346.65c-6.37,4.57-15.31,9.29-32.95,18.55-10.94,5.74-14.62,7.51-24.44,12.87-11.16,6.09-16.85,9.5-23.13,14.4-.62.48-9.54,7.5-14.18,14.04-.29.41-1.45,2.06-3.49,4.95-3.68,5.19-3.87,5.36-4.57,6.46-2.75,4.37-5.23,8.31-3.94,10.55.78,1.36,2.59,1.49,11.85,1.6,7.24.09,10.85.13,13.67.07,5.44-.12,9.57-.21,15.27-.65,4.6-.36,8.86-.69,14.55-1.67,6.18-1.07,10.77-2.33,14.4-3.35,7.49-2.09,13.06-4.19,15.2-5.02,6.3-2.44,10.86-4.66,13.96-6.18,1.98-.97,9.87-4.88,19.99-11.25,4.74-2.98,9.9-6.23,16.37-11.3,6.79-5.32,11.45-9.85,14.91-13.24,4.4-4.31,10.25-10.07,16.73-18.55,3.04-3.98,5.13-7.13,7.35-10.47,2.61-3.94,6.24-9.44,10.25-17.02,3.28-6.18,5.33-10.96,5.8-12.06,1.82-4.26,2.88-7.29,4.74-12.6,2.51-7.16,3.92-11.19,5.39-17.04.64-2.53,1.7-6.8,2.54-12.48.58-3.93.88-7.36,1.16-10.55.18-2.06.36-4.15.51-6.98.18-3.48.1-4.18.29-8.87.13-3.3.3-6.17.33-6.7.29-4.86.48-6.4.32-9.23-.15-2.65-.24-4.01-.87-5.31-.59-1.21-1.47-2.26-5.16-4.95-3.42-2.48-6.11-4.07-6.11-4.07-2.49-1.47-5.72-3.37-10.29-5.45-5.73-2.61-10.3-4-13.2-4.88-5.39-1.63-8.99-2.42-12.73-2.98-7.24-1.08-9.25-.95-10.82-1.02-1.84-.08-.9.79-.83,1.24.24,1.53-.59,2.52-.11,5.31.5,2.94,1.53,4.51,3.11,8.22,1.92,4.51,3.08,7.99,3.49,9.24.72,2.21,1.53,4.7,2.18,8.07.27,1.37.36,2.13.95,7.2.74,6.45,1.12,9.7,1.16,10.69.2,4.32-.04,7.63-.22,9.89-.43,5.55-1.27,9.64-1.45,10.55-.18.87-.9,4.26-2.76,9.89-.69,2.1-2.78,8.36-5.75,14.62-1.14,2.41-6.85,14.18-18.55,27.05-1.81,1.99-9.13,9.92-20.95,18.4Z"/>
  <path class="cls-2" d="M220.32,224.03c-2.73,1.39-5.49,2.85-8.29,4.37-3.97,2.16-7.8,4.33-11.47,6.5-2.93,1.74-5.95,3.64-9.04,5.71-4.72,3.17-9.03,6.36-12.95,9.48-2.25,1.49-5.63,3.86-9.53,7.1-2.59,2.16-3.76,3.34-6.62,5.82-2.34,2.03-5.77,4.9-10.18,8.21-4.76,3.07-9.51,6.14-14.27,9.21-6.21,3.2-12.43,6.4-18.64,9.6-4.45,1.72-8.9,3.43-13.35,5.15-4.75,1.05-9.5,2.09-14.25,3.14-4.12.7-8.24,1.4-12.36,2.1-4.02.14-8.05.28-12.07.41.2.39.53.94,1.03,1.52.76.89,1.52,1.39,2.1,1.76,1.4.9,2.91,1.85,4.55,2.84,2.2,1.08,4.05,1.79,5.38,2.25.98.34,1.86.61,3.56,1.13,1.69.51,3.09.92,4.07,1.2,1.39.37,2.63.64,3.67.84.41.08,1.9.36,3.89.62,1.23.16,2.31.26,3.16.33,1.25.04,3.05.08,5.24.11,3.49.04,5.94.07,8.87-.07,2.1-.1,5.01-.31,8.51-.8,3.9-.99,7.81-1.97,11.71-2.96l19.64-8.15,13.38-7.42,10.91-8.29,11.93-10.76,3.78-5.09.15,7.42c.02,1.6-.06,3.52-.4,5.65-.35,2.21-.88,4.12-1.42,5.67-.22,1.33-.69,3.2-1.75,5.24-1.3,2.49-2.93,4.16-4.04,5.13-1.08,1.85-2.5,3.95-4.36,6.11-2.7,3.14-5.47,5.4-7.75,6.98-2.46,1.94-4.93,3.88-7.39,5.83-3.94,2.38-7.2,4.12-9.52,5.3-1.79.91-3.57,1.77-6.33,3.27-2.27,1.24-4.11,2.31-5.35,3.05-1.69,1.36-3.42,2.73-5.21,4.11-2.03,1.56-4.04,3.07-6.03,4.51-2.07,1.85-4.3,4.02-6.55,6.55-2.47,2.78-4.52,5.48-6.22,7.95-2.13,2.58-4.44,5.74-6.65,9.51-1.78,3.03-3.17,5.92-4.26,8.53-1.75,4.02-3.49,8.05-5.24,12.07l-2.91,9.6-1.75,13.96.58,2.76,5.82,3.2c2.52,1.31,5.21,2.61,8.07,3.87,4.25,1.88,8.32,3.43,12.15,4.71,1.57.69,3.42,1.37,5.53,1.94,2.72.74,5.2,1.09,7.27,1.26,1.98-5.2,3.96-10.4,5.94-15.6l7.29-11.62c1.96-3.16,4.64-6.9,8.29-10.69,2.81-2.93,5.59-5.26,8.07-7.09,3.22-3.03,6.95-6.22,11.24-9.38,2.98-2.2,5.88-4.14,8.65-5.84,7.7-4.22,15.4-8.43,23.1-12.65,4.92-2.23,9.92-4.57,14.98-7,5.33-2.57,10.53-5.15,15.59-7.74,5.03-2.84,10.61-6.41,16.41-10.88,4.94-3.8,9.19-7.61,12.8-11.18,2.62-2.69,5.48-6,8.29-9.99,2.36-3.35,4.24-6.55,5.75-9.45,1.64-2.49,3.34-5.37,4.95-8.65,2.11-4.3,3.59-8.33,4.65-11.85.76-2.35,1.2-4.32,1.46-5.69.15-.8.29-1.62.8-5.51.4-3.07.6-4.61.69-5.45.26-2.42.5-5.93.36-10.44-.06-1.17-.13-2.96-.15-5.16,0-1.97.04-2.23.04-3.86,0-4.04-.32-4.4-.3-7.74.02-2.66.04-4.02.51-5.75.6-2.23,1.6-3.9,2.35-4.96.66-1.27,1.54-2.75,2.72-4.29,1.27-1.66,2.56-2.97,3.69-3.97.06-1.48.13-2.41.18-2.99.02-.17.06-.66.08-1.31.01-.45,0-.83,0-1.07-1.12-.07-2.23-.13-3.35-.2-2.06-.15-4.21-.27-6.44-.33-3.06-.09-5.98-.07-8.75.03-2.19-.02-4.51.04-6.95.19-3.5.22-6.75.61-9.71,1.09-4.62,1.05-9.24,2.11-13.85,3.16-4.37,1.29-8.75,2.58-13.12,3.87-3.85,1.44-7.73,2.92-11.64,4.46-2.27.89-4.53,1.79-6.76,2.69-2.23.95-4.46,1.89-6.69,2.84Z"/>
  <path class="cls-1" d="M307.59,207.3c.05-.39.15-1.29,0-1.02"/>
  <path class="cls-1" d="M356.76,182.36c-.79-2.27-1.62-4.43-2.47-6.47-1.66-4.05-3.29-7.65-4.8-10.76-1.77-3.66-3.15-6.17-5.89-11.2-3.5-6.42-4.97-8.72-5.89-10.11-1.25-1.89-2.6-3.8-3.23-4.69-1.76-2.48-3.29-4.53-4.42-6.02-1.27-1.51-2.55-3.02-3.82-4.53-1.75-1.23-2.57-.88-2.78-.76-.44.23-.52.65-1.25,2.4-.26.61-.61,1.45-.95,2.14-.26.53-.45.85-2.05,3.26-1.51,2.27-1.67,2.49-1.85,2.73-.76.97-.88.98-2.08,2.39-1.4,1.64-2.1,2.45-2.52,3.2-.59,1.06-1.28,2.06-1.8,3.16-.17.36-.37.8-.8.95-.52.17-1.03-.21-1.89-.73-.35-.21-.58-.32-.78-.44,0,0-.99-.56-2.08-1.07-1.06-.49-1.91-.73-2.96-1.04-.68-.2-.75-.19-3.35-.81-2.05-.49-2-.49-2.47-.59-1.07-.22-1.88-.32-3.46-.52-1.63-.21-1.66-.17-3.52-.41-2.16-.28-1.89-.29-2.23-.3-.59,0-1.09-.1-2.08-.29-.2-.04-.25-.05-.28-.1-.34-.59,4.24-3.76,5.79-5.47.42-.46,3.42-3.09,5.85-5.71,3.38-3.63,5.97-7.86,8.36-11.56,1.91-2.96,3.15-6.3,4.73-9.45,1.09-1.87,2.52-4.61,3.78-8.07.86-2.36,1.7-5.24,2.98-13.24.6-3.75,1.29-8.6,1.89-14.33.54-3.97.92-8.46.96-13.38.05-6.54-.53-12.37-1.32-17.31-.83-5.01-1.84-10.23-3.08-15.65-.75-3.3-1.55-6.49-2.38-9.58-.71-2.8-1.57-5.77-2.61-8.87-1-2.99-2.06-5.78-3.13-8.36-2.63.01-5.42.14-8.36.44-8.52.85-15.84,2.85-21.75,5.02-6.01,2.52-12.02,5.04-18.04,7.56-4.95,2.72-9.89,5.43-14.84,8.15-3.87,2.57-7.91,5.46-12.06,8.68-4.84,3.76-9.2,7.5-13.1,11.1-3.67,4.55-6.59,8.5-8.73,11.49-2.89,4.06-4.76,6.69-6.91,10.5-2.25,3.97-3.8,7.44-4.8,9.91-.91,4.33-2.31,5.61-3.45,5.94-.63.19-.85-.02-3.11.05-1.62.05-2.83.2-3.87.33-2.2.27-2.25.42-4.83.79-2.67.38-2.39.19-4.27.5-2.79.47-3.6.92-4.1.46-.37-.34-.68-1.27.65-4.25.62-2.59,1.78-6.51,4.04-10.91,2.66-5.2,4.92-7.29,4.15-8.51-.87-1.36-4.83-.59-15.27,2.95-8.03,2.72-14.54,5.26-19,7.07-6.41,3.39-13.2,7.29-20.24,11.8-6.46,4.14-12.37,8.3-17.75,12.36l-11.35,10.91c-4.31,5.76-8.63,11.52-12.94,17.27-2.04,3.49-4.11,7.33-6.11,11.53-1.75,3.67-3.27,7.2-4.58,10.55-1.31,4.07-2.62,8.15-3.93,12.22-.62,2.84-1.23,5.69-1.85,8.53-1.27,4.72-2.55,9.44-3.82,14.16-.48,1.66-1.03,3.39-1.67,5.16-1.7,4.71-3.68,8.83-5.67,12.36-2.15,3.61-4.3,7.22-6.45,10.83-1.38,1.91-2.96,3.92-4.75,5.97-2.51,2.88-5.01,5.33-7.35,7.42-3.86,2.46-7.72,4.93-11.58,7.39-4.76,1.86-9.51,3.72-14.27,5.58l-8.23,1.99c-2.22.11-4.43.21-6.65.32-.06,1.46-.03,3.1.15,4.87.38,3.74,1.32,6.86,2.25,9.24,2.72-.7,5.14-1.13,7.15-1.4,2.66-.36,4.68-.46,5.28-.49,2.74-.12,5.14-.02,7.13.15,1.79.29,3.59.58,5.38.87.55.17,1.27.45,2.04.95.88.57,1.5,1.2,1.89,1.67.26.5.53,1.14.73,1.89.33,1.25.35,2.35.29,3.13.09.63.15,1.42.07,2.33-.1,1.28-.43,2.33-.73,3.05-.21.63-.55,1.42-1.09,2.25-.64.99-1.34,1.7-1.89,2.18-.76.61-1.65,1.26-2.69,1.89-.93.56-1.81,1.02-2.62,1.38-1.41.61-2.81,1.21-4.22,1.82.6.65,1.27,1.31,2.04,1.96,2.75,2.36,5.6,3.71,7.85,4.51,1.64.52,3.57,1.03,5.75,1.38,1.95.32,3.73.46,5.31.51,2.43.29,4.98.54,7.64.73,3.6.25,7.02.36,10.25.36,4.9-.1,9.79-.19,14.69-.29,6.1-1.19,12.19-2.38,18.29-3.56,6-1.89,12-3.78,18-5.67,7.26-2.94,12.97-6,17.02-8.4,5.22-3.09,9.17-5.95,15.27-10.36,2.25-1.63,5.76-4.18,10.25-7.75,4.34-3.45,4.64-3.91,9.52-7.82,4.59-3.67,8.22-6.38,10.55-8.11,3.51-2.61,5.99-4.45,9.42-6.8,1.1-.75,5.95-4.04,12.72-8.04,5.2-3.07,10.25-5.78,15.05-8.18,5.53-2.55,11.05-5.09,16.58-7.64,4.56-2.03,9.7-4.05,15.38-5.89,5.27-1.71,10.25-3.01,14.83-4.01,4.25-1.22,9-2.34,14.2-3.22,3.77-.64,7.34-1.07,10.68-1.35,3.21-.41,6.67-.74,10.36-.92,4.18-.2,8.09-.2,11.69-.06,6.2.73,12.4,1.47,18.6,2.2,4.1.87,8.41,1.92,12.89,3.17,3.66,1.03,7.15,2.11,10.46,3.23,1.76.67,3.28,1.31,4.51,1.87,1.93.88,3,1.36,4.44,2.2,2.76,1.61,3.2,1.89,3.2,1.89,1.51.97,2.13,1.48,2.75,1.25.73-.26.99-1.35,1.09-1.99-.9-4.04-2.1-8.41-3.7-13.01ZM206.94,181.26c-.3.63-1.48.68-3.82.76-1.74.06-2.27-.09-4.8-.12-1.45-.01-2.18-.02-2.95.05-1.67.15-2.85.5-4.99,1.13-1.09.32-2.3.68-3.87,1.31-1.61.65-2.82,1.27-3.79,1.77-.85.44-1.42.76-2.39,1.31-4.98,2.8-4.4,2.46-5.24,2.95-4.07,2.36-3.69,2.37-5.86,3.53-.92.49-3.19,1.67-6.25,2.79-3.5,1.28-6.29,1.86-8.1,2.22-3.73.75-3.83.43-8.22,1.25-3.51.65-5.39,1-7.9,1.98-3.1,1.21-5.51,2.73-6.21,3.18-3.22,2.07-4.81,3.26-4.81,3.26-1.88,1.4-3.25,2.59-4.31,2.13-.42-.18-.67-.57-.81-.88.85-5.8,2.31-10.46,3.59-13.79,1.62-4.22,3.29-7.22,3.86-8.22,1.82-3.19,3.69-5.78,5.3-7.76,2.59-2.95,5.09-5.16,7.1-6.75,1.65-1.31,4-3.13,7.46-4.9,1.37-.7,3.5-1.77,6.47-2.6,2.69-.75,4.7-.93,8.44-1.23,2.1-.17,4.92-.33,8.28-.3,1.77,0,4.36.14,7.42.84,1.41.32,2.47.66,3.9,1.12,1.87.6,4.42,1.49,7.43,2.77,2.34,1.07,4.22,2.11,5.54,2.9,2.87,1.71,5.11,3.38,7.13,5.46,1.4,1.45,2.83,2.93,2.4,3.82ZM279.35,47.9c-1.69,4.66-2.54,6.98-3.39,10.02-.84,3.01-2.06,7.34-2.69,12.58-.38,3.18-.2,3.73-.22,12.8-.03,11.59-.35,15.88-1.53,20.44-.72,2.78-1.57,4.93-2.76,6.98-.34.58-.56.9-4.22,5.6-3.06,3.92-3.46,4.4-4.21,4.43-1.52.05-2.78-1.9-5.24-5.81-1.31-2.08-2.1-3.33-3.05-5.45-2.93-6.51-3.61-12.72-3.93-15.85-.77-7.54.03-13.4.38-15.6.51-3.24,1.32-8.14,4.06-14,.84-1.79,3.27-6.72,7.96-11.91,3.85-4.27,7.49-6.8,10.06-8.55.94-.64,3.7-2.5,7.58-4.34.91-.43,6.99-3.29,7.52-2.43.28.46-1.3,1.51-3.01,3.88-1.06,1.47-1.69,2.78-3.3,7.22Z"/>
</svg>